# xmcd
#
# Track frame offsets: 
#        150
#        14090
#        25529
#        36480
#        45816
#        65415
#        75945
#        88000
#        100728
#        110982
#        122315
#        135016
#        148038
#        157529
#        166178
#        177046
#        188581
#        199984
#        210399
#        221890
#        232452
#        242687
#        251841
#        272866
#        286350
#
# Disc length: 4011 seconds
#
# Revision: 1
# Processed by: cddbd v1.5.2PL0 Copyright (c) Steve Scherf et al.
# Submitted via: ExactAudioCopy v1.0b3
#
DISCID=560fa919
DTITLE=Various Artist - Essential Country and Western CD2 (2010) [mp3]
DYEAR=2010
DGENRE=Country
TTITLE0=The Kingston Trio - Tom Dooley
TTITLE1=Johnny Horton - The Battle Of New Orleans
TTITLE2=Frankie Laine - The 3:10 To Yuma
TTITLE3=Johnny Cash - I Got Stripes
TTITLE4=Marty Robbins - El Paso
TTITLE5=Jimmie Rodgers - Kisses Sweeter Than Wine
TTITLE6=Kitty Wells - Amigo's Guitar
TTITLE7=Tex Ritter - Sam Hall
TTITLE8=Don Gibbson - Don't Tell Me Your Troubles
TTITLE9=Billy Grammer - Gotta Travel On
TTITLE10=Tennessee Ernie Ford - Dark As The Dungeon
TTITLE11=Leroy Van Dyke - The Auctioneer
TTITLE12=Willie Nelson - Man With The Blues
TTITLE13=Webb Price - I Ain't Never
TTITLE14=Stoney And Wilma Lee Cooper - Come Walk With Me
TTITLE15=Hank Williams - Kaw-Liga
TTITLE16=Red Sovine And Webb Price - Why Baby Why
TTITLE17=Hank Snow - Chasin' A Rainbow
TTITLE18=Frankie Miller - Blackland Farmer
TTITLE19=Marty Robbins - Billy The Kid
TTITLE20=Skeeter Davis - Set Him Free
TTITLE21=Frankie Laine - Rawhide
TTITLE22=Cisco Houston - The Killer
TTITLE23=Kitty Wells - Death At The Bar
TTITLE24=The Louvin Brothers - Mary Of The Wild Moor
EXTD=
EXTT0=
EXTT1=
EXTT2=
EXTT3=
EXTT4=
EXTT5=
EXTT6=
EXTT7=
EXTT8=
EXTT9=
EXTT10=
EXTT11=
EXTT12=
EXTT13=
EXTT14=
EXTT15=
EXTT16=
EXTT17=
EXTT18=
EXTT19=
EXTT20=
EXTT21=
EXTT22=
EXTT23=
EXTT24=
PLAYORDER=
